<svg width="32" height="32" viewBox="0 0 32 32" fill="none" xmlns="http://www.w3.org/2000/svg">
<g clip-path="url(#clip0)">
<path d="M5.68769 13.094V31.0636C5.68769 31.5818 6.10699 32.0011 6.62517 32.0011C7.14335 32.0011 7.56266 31.5818 7.56266 31.0636V13.094C9.69956 12.6584 11.3126 10.7649 11.3126 8.50145V0.939072C11.3126 0.420893 10.8933 0.00158691 10.3751 0.00158691C9.85693 0.00158691 9.43763 0.420893 9.43763 0.939072V7.56397H7.56266V0.939072C7.56266 0.420893 7.14335 0.00158691 6.62517 0.00158691C6.10699 0.00158691 5.68769 0.420893 5.68769 0.939072V7.56397H3.81272V0.939072C3.81272 0.420893 3.39341 0.00158691 2.87523 0.00158691C2.35705 0.00158691 1.93774 0.420893 1.93774 0.939072V8.50145C1.93774 10.765 3.55078 12.6584 5.68769 13.094Z" fill="#DDC7E1"/>
<path d="M16.9374 18.7179V31.0626C16.9374 31.5807 17.3568 32 17.8749 32C18.3931 32 18.8124 31.5807 18.8124 31.0626V0.938033C18.8124 0.613038 18.644 0.311793 18.3675 0.140608C18.091 -0.0324514 17.7449 -0.0452637 17.4556 0.0994215C14.8226 1.4159 13.1875 4.12423 13.1875 7.06763V14.1253C13.1875 16.3889 14.8005 18.2823 16.9374 18.7179Z" fill="#DDC7E1"/>
<path d="M24.4372 13.0594V31.0626C24.4372 31.5808 24.8565 32.0001 25.3747 32.0001C25.8929 32.0001 26.3122 31.5808 26.3122 31.0626V13.0594C28.4762 12.4669 30.0621 9.85396 30.0621 6.62551C30.0621 2.94606 28.0031 0.000610352 25.3747 0.000610352C22.7462 0.000610352 20.6873 2.94606 20.6873 6.62551C20.6873 9.85396 22.2732 12.4669 24.4372 13.0594Z" fill="#DDC7E1"/>
</g>
<defs>
<clipPath id="clip0">
<rect width="32" height="32" fill="white"/>
</clipPath>
</defs>
</svg>
