<svg width="36" height="36" viewBox="0 0 36 36" fill="none" xmlns="http://www.w3.org/2000/svg">
<path d="M30.9144 33.8828L16.7551 26.3857C16.3861 26.19 15.9361 26.217 15.5874 26.4532L4.76037 33.9502C4.35537 34.2315 4.17987 34.7422 4.32837 35.2125C4.47237 35.6782 4.90887 36 5.39937 36H30.3856C30.9009 36 31.3531 35.649 31.4769 35.145C31.6029 34.6432 31.3689 34.1235 30.9144 33.8828Z" fill="#DDC7E1"/>
<path d="M35.6527 31.7453L32.3227 16.7535C32.2417 16.3868 31.983 16.0875 31.6342 15.9503C31.2832 15.813 30.8895 15.8603 30.5835 16.0718L19.7542 23.5688C19.4302 23.7938 19.248 24.1695 19.2727 24.5588C19.2952 24.9525 19.5225 25.3035 19.869 25.4858L34.026 32.9828C34.1925 33.0705 34.3725 33.1155 34.5525 33.1155C34.7932 33.1155 35.034 33.039 35.2342 32.8838C35.583 32.6182 35.7472 32.175 35.6527 31.7453Z" fill="#DDC7E1"/>
<path d="M27.8183 14.2897C27.6698 13.8195 27.2355 13.5 26.7428 13.5H16.4738C14.6063 16.8818 11.8433 20.115 10.707 21.3795C10.068 22.0905 9.15226 22.5 8.19601 22.5C7.23976 22.5 6.32401 22.0905 5.68501 21.3795C5.24626 20.8913 4.56676 20.1105 3.78826 19.143L1.06576 31.3965C0.966763 31.8488 1.15351 32.3145 1.53601 32.5733C1.72501 32.7015 1.94551 32.7645 2.16376 32.7645C2.38876 32.7645 2.61151 32.6993 2.80501 32.5643L27.3818 15.5475C27.789 15.2707 27.9623 14.76 27.8183 14.2897Z" fill="#DDC7E1"/>
<path d="M8.1958 0C3.8533 0 0.320801 3.5325 0.320801 7.875C0.320801 11.916 6.6388 19.0732 7.3588 19.8765C7.57255 20.1127 7.8763 20.25 8.1958 20.25C8.5153 20.25 8.81905 20.1127 9.0328 19.8765C9.7528 19.0732 16.0708 11.916 16.0708 7.875C16.0708 3.5325 12.5383 0 8.1958 0ZM8.1958 11.25C6.3328 11.25 4.8208 9.738 4.8208 7.875C4.8208 6.012 6.3328 4.5 8.1958 4.5C10.0588 4.5 11.5708 6.012 11.5708 7.875C11.5708 9.738 10.0588 11.25 8.1958 11.25Z" fill="#DDC7E1"/>
</svg>
