<svg width="25" height="25" viewBox="0 0 25 25" fill="none" xmlns="http://www.w3.org/2000/svg">
<g clip-path="url(#clip0)">
<path d="M19.1505 0.561261L19.543 1.66463C19.5598 1.71185 19.593 1.7493 19.635 1.76819L20.6153 2.20985C20.7538 2.27225 20.7538 2.4929 20.6153 2.5553L19.635 2.99695C19.5931 3.01585 19.5598 3.0533 19.543 3.10052L19.1505 4.20389C19.0951 4.35975 18.8991 4.35975 18.8436 4.20389L18.4512 3.10052C18.4344 3.0533 18.4011 3.01585 18.3591 2.99695L17.3788 2.5553C17.2403 2.4929 17.2403 2.27225 17.3788 2.20985L18.3592 1.76824C18.4012 1.74935 18.4344 1.7119 18.4512 1.66468L18.8436 0.56131C18.899 0.405353 19.0951 0.405353 19.1505 0.561261Z" fill="#DDC7E1"/>
<path d="M5.46426 2.07797L5.75532 2.89643C5.76777 2.93144 5.79243 2.95922 5.82358 2.97329L6.55078 3.30092C6.65351 3.34721 6.65351 3.51088 6.55078 3.55717L5.82358 3.88481C5.79243 3.89882 5.76777 3.92661 5.75532 3.96166L5.46426 4.78012C5.42314 4.89575 5.27768 4.89575 5.23657 4.78012L4.94551 3.96166C4.93306 3.92661 4.9084 3.89887 4.87725 3.88481L4.15005 3.55712C4.04731 3.51083 4.04731 3.34716 4.15005 3.30087L4.87725 2.97324C4.9084 2.95922 4.93306 2.93144 4.94551 2.89638L5.23657 2.07792C5.27768 1.9623 5.42314 1.9623 5.46426 2.07797Z" fill="#DDC7E1"/>
<path d="M1.99551 6.45366C2.46873 6.45366 2.85234 6.07004 2.85234 5.59683C2.85234 5.12361 2.46873 4.73999 1.99551 4.73999C1.52229 4.73999 1.13867 5.12361 1.13867 5.59683C1.13867 6.07004 1.52229 6.45366 1.99551 6.45366Z" fill="#DDC7E1"/>
<path d="M22.2527 6.11109C22.2527 6.31524 22.0872 6.48072 21.8831 6.48072C21.6789 6.48072 21.5134 6.31524 21.5134 6.11109C21.5134 5.90693 21.6789 5.74146 21.8831 5.74146C22.0872 5.74146 22.2527 5.90693 22.2527 6.11109Z" fill="#DDC7E1"/>
<path d="M23.9725 12.0967L23.6746 12.0663C23.4793 12.0464 23.2868 12.0764 23.1112 12.1513C23.0855 12.1101 23.0573 12.0702 23.0262 12.032C22.8319 11.7935 22.5563 11.645 22.2502 11.6138L22.0549 11.5938L22.331 9.89496C22.3864 9.55399 22.3058 9.21185 22.1038 8.93153C21.9019 8.65126 21.6029 8.46634 21.2619 8.41097C20.5581 8.29642 19.8923 8.77611 19.7779 9.48007L19.5989 10.5815L19.4199 9.48002C19.3055 8.77616 18.6397 8.29633 17.9359 8.41097C17.5949 8.46634 17.2959 8.65126 17.094 8.93153C16.892 9.2118 16.8114 9.55399 16.8668 9.89491L17.4995 13.7885C16.783 13.8435 16.2178 14.4103 16.2178 15.0995C16.2178 15.1138 16.2184 15.128 16.2196 15.1421C16.2256 15.2117 16.2805 15.8303 16.3441 16.1486C16.4054 16.4548 16.7204 17.3848 16.8016 17.6223C16.9866 18.3772 17.5582 18.9976 18.2642 19.2498V24.0636C18.2642 24.3352 18.4844 24.5555 18.7561 24.5555C19.0277 24.5555 19.2479 24.3352 19.2479 24.0636V18.8661C19.2479 18.6194 19.0653 18.4109 18.8208 18.3785C18.3144 18.3113 17.8756 17.8981 17.7537 17.3737C17.7499 17.3575 17.7453 17.3415 17.7399 17.3257C17.594 16.9 17.348 16.1515 17.3088 15.9557C17.266 15.7417 17.2194 15.2768 17.2021 15.0833C17.2133 14.8937 17.4203 14.7675 17.614 14.7675H19.4104C19.6269 14.7675 19.803 14.9436 19.803 15.16V15.2992C19.803 15.5156 19.6269 15.6917 19.4104 15.6917H18.4044C18.1328 15.6917 17.9125 15.912 17.9125 16.1836C17.9125 16.4552 18.1328 16.6755 18.4044 16.6755H19.0813C19.2797 16.9345 19.3549 17.2821 19.2517 17.617C19.1718 17.8766 19.3174 18.1519 19.577 18.2319C19.6252 18.2468 19.674 18.2538 19.722 18.2538C19.9322 18.2538 20.1268 18.118 20.1919 17.9066C20.3418 17.4197 20.2978 16.9189 20.1049 16.4867C20.4679 16.2735 20.7249 15.899 20.7767 15.4622C20.7941 15.4845 20.8121 15.5063 20.8311 15.5273C21.0724 15.7944 21.4231 15.9476 21.7936 15.9476H21.8019C22.0129 15.9476 22.2144 15.8941 22.3929 15.8002C22.4362 15.8747 22.487 15.9449 22.5452 16.0094C22.7325 16.2168 22.986 16.3551 23.2634 16.4068L23.2263 17.2219C23.226 17.2293 23.2258 17.2368 23.2258 17.2442C23.2258 17.745 22.9054 18.1832 22.4286 18.3346C22.2243 18.3994 22.0855 18.5891 22.0855 18.8034V24.0636C22.0855 24.3352 22.3057 24.5555 22.5774 24.5555C22.8491 24.5555 23.0693 24.3352 23.0693 24.0636V19.1299C23.7603 18.77 24.2052 18.0568 24.2096 17.2561L24.2582 16.1893C24.5527 15.9793 24.7595 15.6495 24.798 15.2718L24.994 13.3505C25.0582 12.7232 24.5999 12.1607 23.9725 12.0967ZM20.706 12.614L20.528 14.3581C20.278 14.0106 19.8704 13.7837 19.4105 13.7837H18.4955L17.8379 9.73715C17.8246 9.6556 17.8439 9.57372 17.8923 9.50663C17.9406 9.43959 18.0122 9.39535 18.0938 9.38202C18.2621 9.35482 18.4215 9.46947 18.4489 9.63788L18.9999 13.0286C19.0385 13.2667 19.2441 13.4416 19.4854 13.4416H19.7125C19.9537 13.4416 20.1593 13.2667 20.198 13.0286L20.749 9.63793C20.7763 9.46942 20.9354 9.35487 21.1041 9.38202C21.1857 9.39535 21.2573 9.43959 21.3056 9.50663C21.3539 9.57372 21.3732 9.6556 21.36 9.73719L20.999 11.9583C20.8345 12.1392 20.7312 12.3662 20.706 12.614ZM21.802 14.9639H21.7937C21.6997 14.9639 21.6172 14.9298 21.5613 14.868C21.5054 14.8061 21.4799 14.7205 21.4895 14.627L21.6847 12.7138C21.7074 12.4836 22.0074 12.5897 22.1504 12.5925C22.2641 12.6214 22.2951 12.6595 22.3005 12.7766L22.1053 14.6898C22.0907 14.8332 21.9461 14.9639 21.802 14.9639ZM23.2036 15.1092L23.3996 13.1878C23.4235 13.0812 23.4711 13.0472 23.5748 13.045C23.7066 13.0709 24.0433 13.0282 24.0154 13.2506L23.8194 15.172C23.775 15.5572 23.1463 15.5162 23.2036 15.1092Z" fill="#DDC7E1"/>
<path d="M16.5377 6.91464C16.3528 6.68778 16.0907 6.54647 15.7997 6.51678L15.4061 6.47665H15.406C15.2225 6.45795 15.0449 6.48607 14.8848 6.55101C14.8614 6.51454 14.836 6.47904 14.8083 6.44496C14.6154 6.20829 14.3419 6.06088 14.0381 6.02987L13.8342 6.00912L14.1103 4.31024C14.1657 3.96923 14.085 3.62709 13.8831 3.34681C13.6812 3.06654 13.3822 2.88163 13.0412 2.82626C12.3374 2.71161 11.6716 3.19144 11.5572 3.89535L11.3782 4.99681L11.1992 3.8953C11.0849 3.19139 10.4191 2.71176 9.71519 2.82626C9.37422 2.88163 9.07524 3.06654 8.87329 3.34681C8.67134 3.62709 8.59067 3.96927 8.64609 4.31019L9.27881 8.20375C8.56235 8.25883 7.99707 8.82562 7.99707 9.51483C7.99707 9.53216 7.998 9.54945 7.9998 9.56664L8.0813 10.3355C8.08184 10.3404 8.08242 10.3453 8.08306 10.3502C8.10781 10.5316 8.36533 11.3609 8.57954 12.0323C8.76323 12.7896 9.33579 13.4122 10.0434 13.665V14.4188C9.42163 14.5932 8.96421 15.1646 8.96421 15.8413C8.96421 16.5181 9.42163 17.0895 10.0434 17.2639V24.0465C10.0434 24.3181 10.2636 24.5384 10.5353 24.5384C10.807 24.5384 11.0272 24.3181 11.0272 24.0465V17.1976C11.18 17.1314 11.3195 17.0402 11.4405 16.9291C11.7037 17.1709 12.0544 17.3189 12.4392 17.3189C12.8136 17.3189 13.1554 17.1784 13.4161 16.9481C13.5472 17.064 13.6987 17.1572 13.8649 17.221V24.0464C13.8649 24.3181 14.0851 24.5383 14.3568 24.5383C14.6285 24.5383 14.8487 24.3181 14.8487 24.0464V17.2467C15.4411 17.0541 15.8706 16.4971 15.8706 15.8413C15.8706 15.1855 15.4411 14.6285 14.8487 14.436V13.5451C15.5396 13.1851 15.9846 12.472 15.989 11.6713L16.0375 10.6045C16.3321 10.3945 16.5389 10.0647 16.5774 9.687L16.7783 7.71786C16.808 7.4267 16.7226 7.14149 16.5377 6.91464ZM13.2687 9.04222L13.4647 7.12045C13.4828 6.89676 13.8042 7.00775 13.9383 7.00858C14.0461 7.03597 14.0755 7.07216 14.0806 7.18324L13.8846 9.10507C13.8699 9.24847 13.7253 9.37909 13.5812 9.37909H13.5729C13.4789 9.37909 13.3964 9.34506 13.3405 9.28319C13.2847 9.22132 13.2592 9.13578 13.2687 9.04222ZM9.67153 3.92181C9.71987 3.85477 9.79141 3.81053 9.87305 3.7972C10.0417 3.77015 10.2008 3.88466 10.2282 4.05306L10.7791 7.44374C10.8178 7.68187 11.0234 7.85677 11.2646 7.85677H11.4917C11.733 7.85677 11.9386 7.68187 11.9773 7.44374L12.5283 4.05311C12.5556 3.88466 12.7147 3.77006 12.8834 3.7972C12.965 3.81049 13.0366 3.85477 13.0849 3.92181C13.1332 3.98885 13.1525 4.07079 13.1393 4.15238L12.7795 6.36639C12.6194 6.5413 12.512 6.76708 12.4861 7.02054L12.3073 8.77328C12.0572 8.42582 11.6496 8.19886 11.1898 8.19886H10.2748L9.61719 4.15233C9.60391 4.07079 9.62319 3.9889 9.67153 3.92181ZM10.4417 15.3476C10.714 15.3476 10.9355 15.5691 10.9355 15.8413C10.9355 16.1136 10.714 16.335 10.4417 16.335C10.1695 16.335 9.948 16.1136 9.948 15.8413C9.94805 15.5691 10.1695 15.3476 10.4417 15.3476ZM12.4392 16.3351C12.1669 16.3351 11.9455 16.1136 11.9455 15.8413C11.9455 15.5691 12.1669 15.3476 12.4392 15.3476C12.7115 15.3476 12.933 15.5691 12.933 15.8413C12.933 16.1136 12.7114 16.3351 12.4392 16.3351ZM14.3931 16.3351C14.1208 16.3351 13.8993 16.1136 13.8993 15.8413C13.8993 15.5691 14.1208 15.3476 14.3931 15.3476C14.6653 15.3476 14.8868 15.5691 14.8868 15.8413C14.8868 16.1136 14.6653 16.3351 14.3931 16.3351ZM15.0057 11.6371C15.0054 11.6445 15.0052 11.652 15.0052 11.6595C15.0052 12.1602 14.6848 12.5984 14.208 12.7498C14.0037 12.8146 13.8649 13.0043 13.8649 13.2186V14.4621C13.6988 14.526 13.5473 14.6192 13.4162 14.7351C13.1556 14.5045 12.8138 14.3638 12.4393 14.3638C12.0545 14.3638 11.7037 14.5118 11.4405 14.7536C11.3196 14.6424 11.1801 14.5512 11.0272 14.485V13.2813C11.0272 13.0346 10.8446 12.8262 10.6001 12.7937C10.0937 12.7265 9.65488 12.3133 9.53296 11.789C9.52998 11.7761 9.52647 11.7634 9.52246 11.7508C9.31621 11.1047 9.08892 10.3627 9.05791 10.2151L8.98164 9.4953C8.99507 9.30746 9.20078 9.1827 9.39336 9.1827H11.1898C11.4063 9.1827 11.5824 9.35883 11.5824 9.57528V9.71439C11.5824 9.93085 11.4063 10.1069 11.1898 10.1069H10.1838C9.91216 10.1069 9.69194 10.3272 9.69194 10.5988C9.69194 10.8704 9.91216 11.0907 10.1838 11.0907H10.8601C11.0587 11.3497 11.1343 11.6972 11.0311 12.0323C10.9512 12.2919 11.0968 12.5672 11.3564 12.6471C11.4046 12.662 11.4534 12.6691 11.5014 12.6691C11.7116 12.6691 11.9062 12.5332 11.9713 12.3218C12.1212 11.8349 12.0774 11.3341 11.8844 10.9018C12.2473 10.6887 12.5042 10.3142 12.5561 9.87748C12.5735 9.89969 12.5915 9.92152 12.6105 9.94257C12.8518 10.2097 13.2025 10.3628 13.5729 10.3628H13.5812C13.7923 10.3628 13.9938 10.3094 14.1723 10.2155C14.2156 10.2899 14.2664 10.3601 14.3246 10.4246C14.5119 10.6321 14.7654 10.7703 15.0428 10.822L15.0057 11.6371ZM15.5987 9.58715C15.584 9.73055 15.4395 9.86117 15.2953 9.86117H15.287C15.193 9.86117 15.1105 9.82709 15.0546 9.76522C14.9988 9.70341 14.9733 9.61791 14.9828 9.52435L15.1837 7.55511C15.1937 7.36312 15.5985 7.51117 15.6998 7.4955C15.7715 7.51092 15.7989 7.54471 15.7996 7.618L15.5987 9.58715Z" fill="#DDC7E1"/>
<path d="M8.51821 12.5178C8.32158 12.2765 8.04272 12.1262 7.73311 12.0947L7.47842 12.0687C7.26465 12.047 7.0584 12.0851 6.87588 12.1689C6.68423 11.8643 6.35972 11.6473 5.97471 11.6081L5.83711 11.594L6.11318 9.89511C6.22754 9.19126 5.74795 8.52553 5.04404 8.41118C4.70308 8.35576 4.36089 8.43647 4.08062 8.63838C3.80034 8.84028 3.61543 9.1393 3.56006 9.48027L3.38105 10.5818L3.20205 9.48027C3.14663 9.1393 2.96177 8.84028 2.68149 8.63838C2.40122 8.43637 2.05903 8.35556 1.71807 8.41118C1.3771 8.46655 1.07808 8.65146 0.876172 8.93174C0.674219 9.21201 0.593555 9.5542 0.648975 9.89511L1.28169 13.7887C0.565234 13.8437 0 14.4105 0 15.0997C0 15.1167 0.000878906 15.1338 0.00263672 15.1507L0.0804199 15.8972C0.080957 15.9024 0.580811 17.6102 0.580811 17.6102C0.762695 18.3707 1.33657 18.9964 2.04634 19.2499V19.5566C1.87588 19.5907 1.71255 19.6592 1.56533 19.7612C1.28213 19.9573 1.09229 20.2519 1.03066 20.5907C0.969043 20.9296 1.04312 21.2722 1.23916 21.5554C1.43086 21.8323 1.71694 22.0197 2.04634 22.0855V24.0638C2.04634 24.3354 2.26655 24.5557 2.53823 24.5557C2.80991 24.5557 3.03013 24.3354 3.03013 24.0638V22.2649L5.86777 22.7807V24.0638C5.86777 24.3354 6.08799 24.5557 6.35967 24.5557C6.63135 24.5557 6.85156 24.3354 6.85156 24.0638V22.8625C7.01748 22.8276 7.17651 22.7603 7.32007 22.6609C7.60322 22.4648 7.79312 22.1702 7.85478 21.8313C7.91641 21.4924 7.84233 21.1499 7.64629 20.8667C7.45703 20.5933 7.17573 20.4072 6.85156 20.3392V19.1301C7.54253 18.7702 7.9875 18.057 7.99189 17.2563L8.04043 16.1895C8.33501 15.9795 8.5418 15.6497 8.58032 15.272L8.77417 13.3722C8.80571 13.0625 8.71484 12.7591 8.51821 12.5178ZM5.27163 14.6271L5.46094 12.7717C5.48384 12.4562 6.11851 12.5217 6.07681 12.8345L5.8875 14.69C5.87285 14.8334 5.72832 14.964 5.58418 14.964H5.57588C5.48188 14.964 5.39936 14.93 5.34351 14.8681C5.2876 14.8062 5.26211 14.7207 5.27163 14.6271ZM1.67446 9.50674C1.7228 9.43969 1.79434 9.39541 1.87593 9.38213C1.95747 9.36904 2.0394 9.38818 2.10649 9.43652C2.17358 9.48486 2.21782 9.55644 2.23105 9.63798L2.78203 13.0287C2.8207 13.2668 3.02632 13.4417 3.26758 13.4417H3.49468C3.73589 13.4417 3.9415 13.2668 3.98022 13.0287L4.5312 9.63798C4.54443 9.55644 4.58872 9.48486 4.65576 9.43652C4.72285 9.38818 4.80469 9.36919 4.88633 9.38213C5.05479 9.40952 5.16958 9.56884 5.14219 9.7373L4.77446 12.0002C4.61523 12.1823 4.50859 12.4134 4.48223 12.6718L4.3102 14.3582C4.06016 14.0107 3.65254 13.7838 3.19268 13.7838H2.27769L1.62012 9.7373C1.60684 9.65571 1.62617 9.57383 1.67446 9.50674ZM6.88687 21.6553C6.87227 21.7356 6.82725 21.8055 6.76011 21.852C6.69297 21.8984 6.61187 21.916 6.53149 21.9014C6.53145 21.9014 6.53145 21.9014 6.53145 21.9014L2.24468 21.1221C2.16436 21.1075 2.09453 21.0625 2.048 20.9954C2.00151 20.9283 1.98398 20.847 1.99858 20.7666C2.02539 20.6192 2.15439 20.5156 2.29917 20.5156C2.31724 20.5156 2.3356 20.5172 2.354 20.5206L6.64077 21.2999C6.72109 21.3145 6.79097 21.3595 6.83745 21.4266C6.88394 21.4937 6.90146 21.575 6.88687 21.6553ZM7.00864 17.2221C7.0083 17.2295 7.00815 17.237 7.00815 17.2444C7.00815 17.7452 6.68774 18.1834 6.21089 18.3348C6.00659 18.3996 5.86782 18.5893 5.86782 18.8036V20.1595L3.03018 19.6436V18.8662C3.03018 18.6195 2.84751 18.4111 2.60303 18.3786C2.09668 18.3114 1.65786 17.8982 1.53594 17.3739C1.53394 17.3654 1.06611 15.8363 1.05796 15.7854L0.984522 15.0806C0.997705 14.8925 1.20356 14.7677 1.39629 14.7677H3.19277C3.40923 14.7677 3.5853 14.9438 3.5853 15.1603V15.2994C3.5853 15.5158 3.40918 15.6919 3.19277 15.6919H2.18667C1.91499 15.6919 1.69478 15.9122 1.69478 16.1838C1.69478 16.4554 1.91499 16.6757 2.18667 16.6757H2.86401C3.0623 16.9347 3.13706 17.2824 3.03398 17.6172C2.954 17.8769 3.09966 18.1521 3.35928 18.2321C3.40752 18.247 3.4563 18.2541 3.50425 18.2541C3.71445 18.2541 3.90908 18.1182 3.97417 17.9068C4.12412 17.4199 4.08013 16.9191 3.8873 16.4868C4.2502 16.2736 4.50718 15.8992 4.55898 15.4624C4.57642 15.4846 4.59434 15.5065 4.61333 15.5275C4.85459 15.7946 5.20537 15.9478 5.57578 15.9478H5.58408C5.79512 15.9478 5.99663 15.8944 6.17515 15.8005C6.21846 15.8749 6.26919 15.9452 6.32739 16.0096C6.51475 16.217 6.76826 16.3553 7.04561 16.407L7.00864 17.2221ZM7.79546 13.2724L7.60161 15.1722C7.58701 15.3156 7.44243 15.4461 7.29829 15.4461H7.28994C7.19595 15.4461 7.11343 15.4121 7.05757 15.3502C7.00171 15.2884 6.97622 15.2029 6.98574 15.1093L7.17954 13.2096C7.19907 12.9825 7.48765 13.0616 7.6333 13.0734C7.7561 13.1046 7.7896 13.1458 7.79546 13.2724Z" fill="#DDC7E1"/>
</g>
<defs>
<clipPath id="clip0">
<rect width="25" height="25" fill="white"/>
</clipPath>
</defs>
</svg>
