<svg width="31" height="31" viewBox="0 0 31 31" fill="none" xmlns="http://www.w3.org/2000/svg">
<path fill-rule="evenodd" clip-rule="evenodd" d="M15.4512 0.267578C7.1669 0.267578 0.451172 6.98331 0.451172 15.2676C0.451172 23.5518 7.1669 30.2676 15.4512 30.2676C23.7354 30.2676 30.4512 23.5518 30.4512 15.2676C30.4512 6.98331 23.7354 0.267578 15.4512 0.267578ZM15.0334 12.9788L15.002 12.4598C14.9075 11.1145 15.7364 9.88578 17.0479 9.40912C17.5306 9.23964 18.349 9.21845 18.8841 9.36675C19.0939 9.4303 19.4926 9.64215 19.7759 9.83282L20.29 10.1824L20.8566 10.0023C21.1714 9.90697 21.5911 9.74808 21.7799 9.64215C21.9583 9.54682 22.1157 9.49386 22.1157 9.52563C22.1157 9.70571 21.7275 10.3201 21.4022 10.659C20.9615 11.1357 21.0874 11.1781 21.9793 10.8603C22.5144 10.6802 22.5249 10.6802 22.42 10.8815C22.357 10.9874 22.0317 11.3581 21.6855 11.6971C21.0979 12.2797 21.0665 12.3432 21.0665 12.8305C21.0665 13.5826 20.7097 15.1503 20.353 16.0083C19.692 17.6183 18.2755 19.2814 16.8591 20.1182C14.8656 21.2939 12.211 21.5905 9.9762 20.902C9.23125 20.669 7.9512 20.0758 7.9512 19.9699C7.9512 19.9381 8.33941 19.8957 8.81156 19.8851C9.79783 19.8639 10.7841 19.5885 11.6235 19.1013L12.1901 18.7623L11.5395 18.5399C10.6162 18.2221 9.78734 17.4912 9.57749 16.8027C9.51454 16.5803 9.53553 16.5697 10.1231 16.5697L10.7316 16.5591L10.2175 16.3154C9.60897 16.0083 9.05288 15.4892 8.78009 14.9596C8.58074 14.5783 8.32892 13.6144 8.40237 13.5402C8.42335 13.5084 8.64369 13.572 8.8955 13.6567C9.61946 13.9215 9.71389 13.858 9.2942 13.4131C8.50729 12.6081 8.26597 11.4111 8.64369 10.2777L8.82206 9.76926L9.51454 10.4578C10.931 11.8454 12.5992 12.6716 14.5088 12.9152L15.0334 12.9788Z" fill="#F2F2F2"/>
</svg>
