<svg width="22" height="24" viewBox="0 0 22 24" fill="none" xmlns="http://www.w3.org/2000/svg">
<path d="M11.0001 0C5.41686 0 0.894775 0.631599 0.894775 5.05262V17.6842C0.894775 18.8021 1.38741 19.7937 2.15791 20.4884V22.7369C2.15791 23.4316 2.72634 24 3.42105 24H4.68425C5.38531 24 5.94739 23.4316 5.94739 22.7369V21.4737H16.0527V22.7369C16.0527 23.4316 16.6148 24 17.3158 24H18.579C19.2737 24 19.8421 23.4316 19.8421 22.7369V20.4885C20.6126 19.7937 21.1052 18.8021 21.1052 17.6842V5.05262C21.1053 0.631599 16.5832 0 11.0001 0ZM5.31585 18.9474C4.26741 18.9474 3.42111 18.1011 3.42111 17.0526C3.42111 16.0042 4.26741 15.1579 5.31585 15.1579C6.36429 15.1579 7.21059 16.0042 7.21059 17.0526C7.21059 18.1011 6.36423 18.9474 5.31585 18.9474ZM16.6843 18.9474C15.6358 18.9474 14.7895 18.1011 14.7895 17.0526C14.7895 16.0042 15.6358 15.1579 16.6843 15.1579C17.7327 15.1579 18.579 16.0042 18.579 17.0526C18.579 18.1011 17.7327 18.9474 16.6843 18.9474ZM18.579 11.3684H3.42111V5.05262H18.579V11.3684Z" fill="#DDC7E1"/>
</svg>
