<svg width="30" height="30" viewBox="0 0 30 30" fill="none" xmlns="http://www.w3.org/2000/svg">
<path fill-rule="evenodd" clip-rule="evenodd" d="M15 0C6.71571 0 0 6.71573 0 15C0 23.2843 6.71571 30 15 30C23.2842 30 29.9999 23.2843 29.9999 15C29.9999 6.71573 23.2842 0 15 0ZM21.2509 9.84332C21.9394 10.0322 22.4816 10.5889 22.6656 11.2958C22.9999 12.5769 22.9999 15.25 22.9999 15.25C22.9999 15.25 22.9999 17.923 22.6656 19.2043C22.4816 19.9111 21.9394 20.4678 21.2509 20.6568C20.0033 21 15 21 15 21C15 21 9.9966 21 8.74888 20.6568C8.06043 20.4678 7.51824 19.9111 7.33425 19.2043C6.99997 17.923 6.99997 15.25 6.99997 15.25C6.99997 15.25 6.99997 12.5769 7.33425 11.2958C7.51824 10.5889 8.06043 10.0322 8.74888 9.84332C9.9966 9.49999 15 9.49999 15 9.49999C15 9.49999 20.0033 9.49999 21.2509 9.84332Z" fill="#F2F2F2"/>
<path fill-rule="evenodd" clip-rule="evenodd" d="M13.5 18V13L17.5 15.5001L13.5 18Z" fill="#F2F2F2"/>
</svg>
